<?xml version="1.0" encoding="utf-8"?>
<!-- Generator: Adobe Illustrator 25.2.3, SVG Export Plug-In . SVG Version: 6.00 Build 0)  -->
<svg version="1.1" id="Layer_32" xmlns="http://www.w3.org/2000/svg" xmlns:xlink="http://www.w3.org/1999/xlink" x="0px" y="0px"
	 viewBox="0 0 64 64" style="enable-background:new 0 0 64 64;" xml:space="preserve">
<style type="text/css">
	.st0{fill:#EEEEEE;}
	.st1{fill:#E0E0E0;}
	.st2{fill:#FFFFFF;}
	.st3{fill:#3477CC;}
	.st4{fill:#F9F9F9;}
	.st5{fill:#BDBDBD;}
	.st6{fill:#D4483F;}
	.st7{fill:#B73831;}
	.st8{fill:#EEAB46;}
	.st9{fill:#F3C14F;}
	.st10{fill:#2B66BA;}
	.st11{fill:#F2F2F2;}
	.st12{fill:#BCE4F8;}
	.st13{fill:#E4F5FD;}
	.st14{fill:#F8DA95;}
	.st15{fill:#3E89DE;}
	.st16{fill:#939393;}
	.st17{fill:#DE5E57;}
	.st18{fill:#F9EBD2;}
	.st19{fill:#F7DFB6;}
</style>
<g>
	<rect x="12" y="10" class="st12" width="40" height="44"/>
	<path class="st13" d="M44,50L44,50c0-2.2,1.8-4,4-4h0V18h0c-2.2,0-4-1.8-4-4v0H20v0c0,2.2-1.8,4-4,4h0v28h0c2.2,0,4,1.8,4,4v0H44z"
		/>
	<path class="st2" d="M44,40V14H20c0,2.2-1.8,4-4,4v28h22C41.3,46,44,43.3,44,40z"/>
	<path class="st2" d="M31,42h-6c-2.8,0-5-2.2-5-5V23c0-2.8,2.2-5,5-5h6c2.8,0,5,2.2,5,5v14C36,39.8,33.8,42,31,42z"/>
	<rect x="10" y="54" class="st10" width="44" height="8"/>
	<path class="st15" d="M10,54v5h38c1.7,0,3-1.3,3-3v-2H10z"/>
	<rect x="10" y="2" class="st10" width="44" height="8"/>
	<rect x="58" y="2" class="st10" width="4" height="8"/>
	<rect x="54" y="4" class="st5" width="4" height="4"/>
	<rect x="54" y="56" class="st5" width="4" height="4"/>
	<path class="st15" d="M10,2v5h38c1.7,0,3-1.3,3-3V2H10z"/>
	<path class="st15" d="M58,2v6c1.1,0,2-0.9,2-2V2H58z"/>
	<rect x="58" y="54" class="st10" width="4" height="8"/>
	<path class="st15" d="M58,54v6c1.1,0,2-0.9,2-2v-4H58z"/>
	<rect x="2" y="2" class="st10" width="4" height="8"/>
	<path class="st15" d="M2,2v6c1.1,0,2-0.9,2-2V2H2z"/>
	<rect x="2" y="54" class="st10" width="4" height="8"/>
	<path class="st15" d="M2,54v6c1.1,0,2-0.9,2-2v-4H2z"/>
	<rect x="6" y="4" class="st5" width="4" height="4"/>
	<rect x="6" y="56" class="st5" width="4" height="4"/>
	<g>
		<path d="M58,11h4c0.6,0,1-0.4,1-1V2c0-0.6-0.4-1-1-1h-4c-0.6,0-1,0.4-1,1v1h-2V2c0-0.6-0.4-1-1-1H10C9.4,1,9,1.4,9,2v1H7V2
			c0-0.6-0.4-1-1-1H2C1.4,1,1,1.4,1,2v8c0,0.6,0.4,1,1,1h4c0.6,0,1-0.4,1-1V9h2v1c0,0.6,0.4,1,1,1h1v42h-1c-0.6,0-1,0.4-1,1v1H7v-1
			c0-0.6-0.4-1-1-1H2c-0.6,0-1,0.4-1,1v8c0,0.6,0.4,1,1,1h4c0.6,0,1-0.4,1-1v-1h2v1c0,0.6,0.4,1,1,1h44c0.6,0,1-0.4,1-1v-1h2v1
			c0,0.6,0.4,1,1,1h4c0.6,0,1-0.4,1-1v-8c0-0.6-0.4-1-1-1h-4c-0.6,0-1,0.4-1,1v1h-2v-1c0-0.6-0.4-1-1-1h-1V11h1c0.6,0,1-0.4,1-1V9h2
			v1C57,10.6,57.4,11,58,11z M59,3h2v6h-2V3z M5,9H3V3h2V9z M7,7V5h2v2H7z M5,61H3v-6h2V61z M7,59v-2h2v2H7z M59,55h2v6h-2V55z
			 M57,57v2h-2v-2H57z M53,61H11v-6h42V61z M51,53H13V11h38V53z M53,9H11V3h42V9z M55,7V5h2v2H55z"/>
		<path d="M16,47c1.7,0,3,1.3,3,3c0,0.6,0.4,1,1,1h24c0.6,0,1-0.4,1-1c0-1.7,1.3-3,3-3c0.6,0,1-0.4,1-1V18c0-0.6-0.4-1-1-1
			c-1.7,0-3-1.3-3-3c0-0.6-0.4-1-1-1H20c-0.6,0-1,0.4-1,1c0,1.7-1.3,3-3,3c-0.6,0-1,0.4-1,1v28C15,46.6,15.4,47,16,47z M17,18.9
			c2-0.4,3.5-1.9,3.9-3.9h22.2c0.4,2,1.9,3.5,3.9,3.9v26.2c-2,0.4-3.5,1.9-3.9,3.9H20.9c-0.4-2-1.9-3.5-3.9-3.9V18.9z"/>
		<rect x="47" y="13" width="2" height="2"/>
		<rect x="15" y="13" width="2" height="2"/>
		<rect x="47" y="49" width="2" height="2"/>
		<rect x="15" y="49" width="2" height="2"/>
		<rect x="21" y="19" width="22" height="2"/>
		<rect x="21" y="23" width="22" height="2"/>
		<rect x="21" y="27" width="22" height="2"/>
		<rect x="21" y="31" width="22" height="2"/>
		<rect x="21" y="35" width="22" height="2"/>
		<rect x="21" y="39" width="22" height="2"/>
		<rect x="21" y="43" width="18" height="2"/>
		<rect x="41" y="43" width="2" height="2"/>
	</g>
</g>
</svg>
