<svg xmlns="http://www.w3.org/2000/svg" xmlns:xlink="http://www.w3.org/1999/xlink" viewBox="0 0 400 300" width="406" height="306" class="illustration styles_illustrationTablet__1DWOa"><defs><linearGradient id="linear-gradient" x1="225.19" y1="165.33" x2="208.41" y2="188.07" gradientUnits="userSpaceOnUse"><stop offset="0" stop-color="#78b46a"></stop><stop offset="0.03" stop-color="#7f3500"></stop><stop offset="1" stop-color="#fff"></stop></linearGradient><linearGradient id="linear-gradient-2" x1="1902.51" y1="222.3" x2="1867.08" y2="261.15" gradientTransform="translate(-1717.57)" xlink:href="#linear-gradient"></linearGradient><linearGradient id="linear-gradient-3" x1="1852.91" y1="124.62" x2="1828.92" y2="150.93" gradientTransform="translate(-1717.57)" xlink:href="#linear-gradient"></linearGradient><linearGradient id="linear-gradient-4" x1="38.19" y1="147.65" x2="51.82" y2="137.71" gradientTransform="matrix(-1, 0, 0, 1, 333.25, 0)" gradientUnits="userSpaceOnUse"><stop offset="0" stop-color="#fff" stop-opacity="0"></stop><stop offset="0.99" stop-color="#dc841e"></stop></linearGradient><linearGradient id="linear-gradient-5" x1="1815.07" y1="172.56" x2="1779.65" y2="211.4" gradientTransform="translate(-1717.57)" xlink:href="#linear-gradient"></linearGradient></defs><title>ZZ</title><g style="isolation: isolate;"><g id="Layer_2" data-name="Layer 2"><path d="M194.55,287.26,23.05,185.91c-5.46-3.07-10.14-8.1-4.82-11.4L190.34,75.32c2.58-1.6,6.5-2.65,9.13-1.12l180,104.48c5.46,3.17,6.44,12,1,15.2L217.15,287.1A22.8,22.8,0,0,1,194.55,287.26Z" fill="#ffb3a6"></path><path d="M208.69,153.54l-33.84,19.31s52.13,31.81,62.79,36.29l19.49-28" opacity="0.46" fill="url(#linear-gradient)" style="mix-blend-mode: multiply;"></path><path d="M197,246.18l-33.85-19.27L129.3,246.22s17.63,10.76,34.48,20.64C174.48,259.29,185.19,251.64,197,246.18Z" opacity="0.46" fill="url(#linear-gradient-2)" style="mix-blend-mode: multiply;"></path><path d="M124.07,127.18,102.6,139.43s1.82,11.23,12.48,15.71l28.11-18" opacity="0.46" fill="url(#linear-gradient-3)" style="mix-blend-mode: multiply;"></path><ellipse cx="134.58" cy="130.31" rx="12.95" ry="9.12" fill="#68e1fd"></ellipse><ellipse cx="134.57" cy="124.93" rx="9.7" ry="3.97" fill="#974c26"></ellipse><path d="M134.22,118.31c0-1.79-.06-3.58-.2-5.37q-.06-.7-.13-1.39l-.1-.91c0-.27-.14-1-.14-.93q-.09-.55-.19-1.09a42.74,42.74,0,0,0-6.92-16.93,24.75,24.75,0,0,0-1.93,9.91c0,1,.08,2,.16,2.94,0,.26,0,.37,0,.42s0-.06,0,.17c.08.48.17,1,.27,1.44a39.12,39.12,0,0,0,1.53,5.37,32.67,32.67,0,0,0,2.09,4.68c.88,1.69,1.84,3.34,2.87,4.95.8,1.26,1.56,2.38,2.33,3.45C134.1,122.79,134.21,120.55,134.22,118.31Zm-5.09-20.13a1.61,1.61,0,0,0,0-.7h0q.37.38.73.78A2.22,2.22,0,0,0,129.12,98.18Z" fill="#999a1c"></path><path d="M137.55,119.69c1-1.51,1.88-3,2.73-4.63q.33-.62.64-1.24l.41-.83.39-.86q.22-.51.43-1a42.74,42.74,0,0,0,3.33-18,24.75,24.75,0,0,0-7,7.3c-.52.83-1,1.69-1.45,2.56l-.2.37s0,0-.05.16c-.19.45-.38.9-.56,1.36a39.12,39.12,0,0,0-1.61,5.35,32.67,32.67,0,0,0-.77,5.07c-.18,1.9-.26,3.8-.26,5.71,0,1.49,0,2.85.09,4.16C135,123.4,136.34,121.58,137.55,119.69ZM144.15,100a1.61,1.61,0,0,0,.34-.61h0q.11.52.19,1A2.22,2.22,0,0,0,144.15,100Z" fill="#999a1c"></path><path d="M137.48,124.15q1.51-.75,3-1.62l.75-.46.49-.31.48-.34.56-.41a26.88,26.88,0,0,0,7.6-8.63,15.57,15.57,0,0,0-6.12,1.69c-.55.28-1.08.59-1.61.91l-.23.14s0,0-.08.07l-.74.55a24.61,24.61,0,0,0-2.6,2.37,20.55,20.55,0,0,0-2.05,2.49c-.71,1-1.37,2-2,3-.48.8-.91,1.55-1.29,2.28C134.93,125.34,136.22,124.78,137.48,124.15Zm9.92-8.5a1,1,0,0,0,.38-.22h0q-.11.32-.24.63A1.4,1.4,0,0,0,147.4,115.66Z" fill="#999a1c"></path><path d="M134.22,118.31c0-1.79-.06-3.58-.2-5.37q-.06-.7-.13-1.39l-.1-.91c0-.27-.14-1-.14-.93q-.09-.55-.19-1.09a42.74,42.74,0,0,0-6.92-16.93,24.75,24.75,0,0,0-1.93,9.91c0,1,.08,2,.16,2.94,0,.26,0,.37,0,.42s0-.06,0,.17c.08.48.17,1,.27,1.44a39.12,39.12,0,0,0,1.53,5.37,32.67,32.67,0,0,0,2.09,4.68c.88,1.69,1.84,3.34,2.87,4.95.8,1.26,1.56,2.38,2.33,3.45C134.1,122.79,134.21,120.55,134.22,118.31Zm-5.09-20.13a1.61,1.61,0,0,0,0-.7h0q.37.38.73.78A2.22,2.22,0,0,0,129.12,98.18Z" fill="#999a1c"></path><path d="M137.55,119.69c1-1.51,1.88-3,2.73-4.63q.33-.62.64-1.24l.41-.83.39-.86q.22-.51.43-1a42.74,42.74,0,0,0,3.33-18,24.75,24.75,0,0,0-7,7.3c-.52.83-1,1.69-1.45,2.56l-.2.37s0,0-.05.16c-.19.45-.38.9-.56,1.36a39.12,39.12,0,0,0-1.61,5.35,32.67,32.67,0,0,0-.77,5.07c-.18,1.9-.26,3.8-.26,5.71,0,1.49,0,2.85.09,4.16C135,123.4,136.34,121.58,137.55,119.69ZM144.15,100a1.61,1.61,0,0,0,.34-.61h0q.11.52.19,1A2.22,2.22,0,0,0,144.15,100Z" fill="#999a1c"></path><path d="M137.48,124.15q1.51-.75,3-1.62l.75-.46.49-.31.48-.34.56-.41a26.88,26.88,0,0,0,7.6-8.63,15.57,15.57,0,0,0-6.12,1.69c-.55.28-1.08.59-1.61.91l-.23.14s0,0-.08.07l-.74.55a24.61,24.61,0,0,0-2.6,2.37,20.55,20.55,0,0,0-2.05,2.49c-.71,1-1.37,2-2,3-.48.8-.91,1.55-1.29,2.28C134.93,125.34,136.22,124.78,137.48,124.15Zm9.92-8.5a1,1,0,0,0,.38-.22h0q-.11.32-.24.63A1.4,1.4,0,0,0,147.4,115.66Z" fill="#999a1c"></path><path d="M222.13,146l-18.73,9a4.31,4.31,0,0,0-.3,7.61l44.39,25.9a4.31,4.31,0,0,0,5.8-1.39l10.79-16.78" fill="#56403d"></path><path d="M324,102.59,174.65,16.53a6.74,6.74,0,0,0-10.1,5.84V111.9a5.6,5.6,0,0,0,2.8,4.85l159.22,91.91a3.61,3.61,0,0,0,5.42-3.13V116.37A15.9,15.9,0,0,0,324,102.59Z" fill="#68e1fd"></path><path d="M174.66,23.3,319.5,106.63a10.16,10.16,0,0,1,5.09,8.8v67.11a3.67,3.67,0,0,1-5.49,3.18L171.39,101a3.62,3.62,0,0,1-1.82-3.14V26.25A3.4,3.4,0,0,1,174.66,23.3Z" fill="#fff"></path><ellipse cx="234.93" cy="146.33" rx="3.15" ry="3.6" transform="translate(-23.44 47.08) rotate(-10.9)" fill="#ab643c"></ellipse><polyline points="213.59 114.35 280.9 154.79 314.15 135.46 254.74 100.88" opacity="0.32" fill="url(#linear-gradient-4)"></polyline><path d="M296.77,106.3,224,61.93a2.52,2.52,0,0,0-3.78,2.27V89.48a2.65,2.65,0,0,0,1.27,2.28l72.76,43.43A2.51,2.51,0,0,0,298,133l.38-23.57A3.54,3.54,0,0,0,296.77,106.3Z" fill="#e2ac00"></path><path d="M279.36,119.31c2.61,3.65,7.2,4.67,10.24,2.29s3.39-7.27.78-10.91-7.2-4.67-10.24-2.29S276.75,115.66,279.36,119.31Z" fill="#fff"></path><path d="M272.22,101.79,242.54,83.92a1.13,1.13,0,0,0-1.14,1.94l29.68,17.87a1.13,1.13,0,0,0,1.14-1.94Z" fill="#f2f2f2"></path><path d="M271,109.05,230.09,84.42A1.13,1.13,0,0,0,229,86.36L269.86,111a1.13,1.13,0,0,0,1.14-1.94Z" fill="#f2f2f2"></path><path d="M282.25,111.2,209.52,66.84a2.52,2.52,0,0,0-3.78,2.27V94.38A2.65,2.65,0,0,0,207,96.67l72.76,43.43a2.51,2.51,0,0,0,3.76-2.24l.38-23.57A3.54,3.54,0,0,0,282.25,111.2Z" fill="#f47b56"></path><path d="M264.84,124.21c2.61,3.65,7.2,4.67,10.24,2.29s3.39-7.27.78-10.91-7.2-4.67-10.24-2.29S262.23,120.56,264.84,124.21Z" fill="#fff"></path><path d="M257.7,106.69,228,88.82a1.13,1.13,0,0,0-1.14,1.94l29.68,17.87a1.13,1.13,0,0,0,1.14-1.94Z" fill="#f2f2f2"></path><path d="M256.47,114,215.57,89.33a1.13,1.13,0,0,0-1.14,1.94l40.91,24.63a1.13,1.13,0,0,0,1.14-1.94Z" fill="#f2f2f2"></path><path d="M264,114.18,191.25,69.82a2.52,2.52,0,0,0-3.78,2.27V97.36a2.65,2.65,0,0,0,1.27,2.28l72.76,43.43a2.51,2.51,0,0,0,3.76-2.24l.38-23.57A3.54,3.54,0,0,0,264,114.18Z" fill="#68e1fd"></path><path d="M264,114.18,191.25,69.82a2.52,2.52,0,0,0-3.78,2.27V97.36a2.65,2.65,0,0,0,1.27,2.28l72.76,43.43a2.51,2.51,0,0,0,3.76-2.24l.38-23.57A3.54,3.54,0,0,0,264,114.18Z" fill="#68e1fd"></path><path d="M246.58,127.19c2.61,3.65,7.2,4.67,10.24,2.29s3.39-7.27.78-10.91-7.2-4.67-10.24-2.29S244,123.54,246.58,127.19Z" fill="#fff"></path><path d="M239.44,109.67,209.75,91.8a1.13,1.13,0,0,0-1.14,1.94l29.68,17.87a1.13,1.13,0,0,0,1.14-1.94Z" fill="#f2f2f2"></path><path d="M238.21,116.94,197.3,92.31a1.13,1.13,0,0,0-1.14,1.94l40.91,24.63a1.13,1.13,0,0,0,1.14-1.94Z" fill="#f2f2f2"></path><path d="M168.52,111.7a35.4,35.4,0,0,0-10.31,15.11c-3.62,10,5.43,26.34,5.43,26.34L177.72,142" fill="#ff8f6f"></path><path d="M167,243.91l-3.82-2.11,1-5.46s5.69.54,6.19,2.56" fill="#003b94"></path><path d="M168.4,243.83c.86-.53,1.76-1,2.65-1.47,2.21-1.21,5.4-2.46,6.76-4.73a2.64,2.64,0,0,0-.18-3c-2-2.42-6.38,1.56-8.62-1.12-.44-.53-.65-8.94-.65-8.94l-8.52,2.3s-1.44,16.9-1.28,17.94,3.09,2,3.09,2a7.55,7.55,0,0,0,2.46-1c.89-.65.08-8.58,1.22-7.47s1.64,5.45,1.64,5.45A5.86,5.86,0,0,0,168.4,243.83Z" fill="#68e1fd"></path><path d="M183.27,252.08,179.45,250l1-5.46s5.69.54,6.19,2.56" fill="#003b94"></path><path d="M184.71,252c.86-.53,1.76-1,2.65-1.47,2.21-1.21,5.4-2.46,6.76-4.73a2.64,2.64,0,0,0-.18-3c-2-2.42-6.38,1.56-8.62-1.12-.44-.53-.65-8.94-.65-8.94l-8.52,2.3S174.7,252,174.86,253s3.09,2,3.09,2a7.55,7.55,0,0,0,2.46-1c.89-.65.08-8.58,1.22-7.47s1.64,5.45,1.64,5.45A5.86,5.86,0,0,0,184.71,252Z" fill="#68e1fd"></path><path d="M155.51,197.14,153,230.71s4,5.52,17.41,2.45h0l.13-22.63" fill="#3e2928"></path><path d="M171,203.79c-.29,2.89,0,34.77,0,34.77s3.71,6.94,19.86,0l-.23-27.09" fill="#3e2928"></path><path d="M154.26,208.23c1.1.76,1.48-3.15,2.63-2.48a65.43,65.43,0,0,0,13.24,5.84l.1,0a.91.91,0,0,1,1.23.45,70,70,0,0,0,8.69,2c3.77.6,6.89-2.19,10.76-2.38,0-14.82.07-57-6.24-66L166,139.38c-.09,1.54-9.06,11.94-8.84,24.62.25,14.29-1.61,27.77-1.93,32.24C155.18,197,154.3,207.42,154.26,208.23Z" fill="#3e2928"></path><path d="M186.39,128.62l-1.72,17s-13.93.56-19.93-3.58V127.62" fill="#ff8f6f"></path><path d="M204.1,117.43l-1.42,1.94a46.66,46.66,0,0,0,2-4.85c.4-1.13-1.41-1.58-1.81-.45l-.21.58q.26-.9.49-1.81a.93.93,0,0,0-1.81-.45,48.48,48.48,0,0,1-1.41,4.64,33.13,33.13,0,0,0,.66-4.1c.12-1.19-1.75-1.14-1.86,0a29.53,29.53,0,0,1-.84,4.65q0-.8-.15-1.6a.94.94,0,0,0-.39-.67c-.05-.21-.11-.41-.18-.62a.94.94,0,0,0-1.83.28l-.12,7a8.37,8.37,0,0,1-1.31,2,32.5,32.5,0,0,1,2.6,2,26.79,26.79,0,0,1,2.12,2q.9-1.12,1.73-2.28a1,1,0,0,0,.18-.2q2.5-3.7,5.16-7.28C206.44,117.39,204.81,116.48,204.1,117.43Z" fill="#ffb5a9"></path><path d="M177.55,113.12s6.58,1.77,9.25,6a75.24,75.24,0,0,1,4.41,9.09l4.86-7.55s5.9,1.81,8.24,4.71c0,0-7,15.3-13.1,16.61S178.63,133,178.63,133s-1.34,4.3-1.08-.29" fill="#ff8f6f"></path><path d="M181.73,129.47a13.33,13.33,0,0,1-4.17-5.94c-.79-2.69.2-5.05,1.12-7.55a24.33,24.33,0,0,0,1.72-7.77c.08-2.62-.22-5.24-.4-7.85a.76.76,0,0,1,0-.34c-.88-2.95-2.68-5.45-6.23-5.75-9.19-.78-9.71,9.4-9.64,13.54s.51,6.94-2.54,8.67-5.25,6.27-2.34,9.94.3,2.33-1.64,5.59-1.44,7.33,2.54,8.8,22.48-1.29,24.18-3a3.53,3.53,0,0,0,.87-2.5A9.7,9.7,0,0,0,181.73,129.47Z" fill="#007f68"></path><path d="M190.77,45.51a14.65,14.65,0,0,1,2.6,7.6,5,5,0,0,1-.85,3.55,2.05,2.05,0,0,1-2.48.43,3.83,3.83,0,0,1-1.34-.9,4.67,4.67,0,0,1-.86-1.09l-.24-.47a1.66,1.66,0,0,1-.24.34,1.75,1.75,0,0,1-.82.35,2.49,2.49,0,0,1-1.48-.18,5.55,5.55,0,0,1-2.62-2.35A7.55,7.55,0,0,1,181.28,49a3.72,3.72,0,0,1,.93-3,2.14,2.14,0,0,1,2.43-.38,3.61,3.61,0,0,1,1.09.68,4.22,4.22,0,0,1,.72.79l.18.32,0-.89,2,.78.2,5.62a2.19,2.19,0,0,0,.36,1.13,1.75,1.75,0,0,0,.82.73q1.45.57,1.34-2.5a10.82,10.82,0,0,0-1.93-5.65,9.47,9.47,0,0,0-4.43-3.78,3.73,3.73,0,0,0-4.16.53A5.65,5.65,0,0,0,179.22,48a11.92,11.92,0,0,0,2,6A9.22,9.22,0,0,0,185.49,58a5.05,5.05,0,0,0,2,.39,2.67,2.67,0,0,0,1.3-.24l.4-.22,1.21,2.25-.2.14a4.79,4.79,0,0,1-.59.28,3.85,3.85,0,0,1-1,.28,5,5,0,0,1-1.33,0,6.7,6.7,0,0,1-1.69-.43,11,11,0,0,1-4-2.94,17.43,17.43,0,0,1-3.1-4.84,14.82,14.82,0,0,1-1.28-5.37,8.62,8.62,0,0,1,.92-4.51,5.08,5.08,0,0,1,2.84-2.5,5.47,5.47,0,0,1,3.94.2A12.71,12.71,0,0,1,190.77,45.51Zm-4.41,7.11a2,2,0,0,0,.41-1.48,3.82,3.82,0,0,0-.53-1.85,2.54,2.54,0,0,0-1.21-1.1,1.09,1.09,0,0,0-1.23.16,1.83,1.83,0,0,0-.44,1.45,3.74,3.74,0,0,0,.57,1.86,2.69,2.69,0,0,0,1.27,1.14,1,1,0,0,0,1.16-.18" fill="#f47b56"></path><path d="M308.84,153.79a14.6,14.6,0,0,1,2.6,7.6,5,5,0,0,1-.85,3.55,2.06,2.06,0,0,1-2.48.43,3.94,3.94,0,0,1-1.34-.9,4.84,4.84,0,0,1-.86-1.09l-.24-.47a1.94,1.94,0,0,1-.24.34,1.7,1.7,0,0,1-.82.35,2.4,2.4,0,0,1-1.47-.17,5.55,5.55,0,0,1-2.62-2.36,7.52,7.52,0,0,1-1.17-3.8,3.68,3.68,0,0,1,.93-3,2.13,2.13,0,0,1,2.42-.38,3.58,3.58,0,0,1,1.09.68,4.32,4.32,0,0,1,.72.8l.19.32,0-.89,2,.77.2,5.62a2.27,2.27,0,0,0,.36,1.13,1.75,1.75,0,0,0,.82.73c1,.38,1.41-.45,1.35-2.5a10.87,10.87,0,0,0-1.93-5.66,9.49,9.49,0,0,0-4.42-3.77,3.74,3.74,0,0,0-4.16.52,5.65,5.65,0,0,0-1.57,4.65,11.88,11.88,0,0,0,2,6,9.26,9.26,0,0,0,4.32,3.87,5.21,5.21,0,0,0,2,.4,2.77,2.77,0,0,0,1.3-.24l.4-.22,1.21,2.25-.2.14a4.79,4.79,0,0,1-.59.28,4.4,4.4,0,0,1-1,.28,5.1,5.1,0,0,1-1.34,0,6.68,6.68,0,0,1-1.68-.44,11,11,0,0,1-4-2.93,17.47,17.47,0,0,1-3.1-4.85,14.79,14.79,0,0,1-1.28-5.37,8.57,8.57,0,0,1,.92-4.5,5.12,5.12,0,0,1,2.84-2.51,5.54,5.54,0,0,1,3.95.2A12.73,12.73,0,0,1,308.84,153.79Zm-4.41,7.11a2,2,0,0,0,.42-1.48,3.79,3.79,0,0,0-.54-1.85,2.5,2.5,0,0,0-1.2-1.1,1.09,1.09,0,0,0-1.23.15,1.81,1.81,0,0,0-.45,1.45,3.71,3.71,0,0,0,.57,1.85,2.71,2.71,0,0,0,1.27,1.15,1,1,0,0,0,1.16-.17" fill="#f47b56"></path><path d="M109.56,196.43,75.71,177.17,41.87,196.47s18.83,11.76,35.68,21.64C88.25,210.55,97.76,201.9,109.56,196.43Z" opacity="0.46" fill="url(#linear-gradient-5)" style="mix-blend-mode: multiply;"></path><polyline points="60.22 145.89 60.22 187.89 92.98 206.63 129.97 184.78 129.97 142.78" fill="#68e1fd"></polyline><polygon points="60.22 145.89 98.23 124.25 129.97 142.78 92.98 164.63 60.22 145.89" fill="#68e1fd"></polygon><polygon points="92.98 164.63 92.98 206.63 129.97 184.78 129.97 142.78 92.98 164.63" fill="#68e1fd"></polygon><polyline points="60.22 145.89 60.22 187.89 92.98 206.63 129.97 184.78 129.97 142.78" fill="#2e2e75" opacity="0.17"></polyline><polygon points="60.22 145.89 98.23 124.25 129.97 142.78 92.98 164.63 60.22 145.89" fill="#68e1fd"></polygon><polygon points="92.98 164.63 92.98 206.63 129.97 184.78 129.97 142.78 92.98 164.63" fill="#2e2e75" opacity="0.33"></polygon><path d="M93.85,133.89a20.27,20.27,0,0,1,11.09,2.44c1.94,1.14,3,2.33,3.15,3.57s-.49,2.32-2,3.23a7.12,7.12,0,0,1-2.33.92,8,8,0,0,1-2.07.21l-.76-.06a2,2,0,0,1,.14.53,2.44,2.44,0,0,1-.4,1.21,4.45,4.45,0,0,1-1.64,1.61,9.87,9.87,0,0,1-5.23,1.38,10.35,10.35,0,0,1-5.43-1.37c-1.56-.92-2.36-2-2.42-3.24a3.5,3.5,0,0,1,2-3.13,6.63,6.63,0,0,1,1.84-.79,7.17,7.17,0,0,1,1.59-.27h.55l-1-.6,2.81-1.75,6.51,3.83a3.42,3.42,0,0,0,3.24,0q2.07-1.29-1.48-3.39a15.05,15.05,0,0,0-8.24-1.83,16.93,16.93,0,0,0-8.6,2.47q-3.54,2.21-3.51,5.27c0,2,1.25,3.78,3.68,5.21a16.42,16.42,0,0,0,8.7,2.07,16.35,16.35,0,0,0,8.6-2.28,9.64,9.64,0,0,0,2.39-2,4.43,4.43,0,0,0,1-1.7l.14-.63,3.71.21a3.23,3.23,0,0,1,0,.34,6.4,6.4,0,0,1-.27.9,6.47,6.47,0,0,1-.64,1.34,9.29,9.29,0,0,1-1.32,1.56,12.45,12.45,0,0,1-2.15,1.66,20,20,0,0,1-7.28,2.62,27.49,27.49,0,0,1-8.49.15,19.45,19.45,0,0,1-7.29-2.38,9.46,9.46,0,0,1-4.14-4.34,6.38,6.38,0,0,1,0-5.14,9.9,9.9,0,0,1,4.11-4.49A22.63,22.63,0,0,1,93.85,133.89Zm3.64,10.34a2.14,2.14,0,0,0-1.25-1.56,5.14,5.14,0,0,0-2.6-.71,4.39,4.39,0,0,0-2.42.62,1.78,1.78,0,0,0-1,1.56,2,2,0,0,0,1.18,1.57,5.11,5.11,0,0,0,2.65.67,4.76,4.76,0,0,0,2.54-.66,1.61,1.61,0,0,0,.94-1.49" fill="#3e2928"></path></g></g></svg>